<svg width="141" height="28" viewBox="0 0 141 28" fill="none" xmlns="http://www.w3.org/2000/svg">
<path d="M132.385 6.92967C132.581 6.85157 132.799 6.85157 132.995 6.92967C133.627 7.18139 133.751 8.15071 134.496 8.20467C135.022 8.24266 135.537 7.80486 136.064 7.9361C136.276 7.98904 136.46 8.12455 136.575 8.31345C136.928 8.89231 136.473 9.74311 137.048 10.2234C137.447 10.557 138.107 10.5138 138.454 10.9227C138.6 11.0949 138.672 11.3196 138.653 11.5461C138.598 12.2199 137.739 12.6414 137.928 13.3676C138.058 13.8703 138.61 14.2237 138.653 14.7571C138.672 14.9836 138.6 15.2083 138.454 15.3805C138.018 15.8942 137.074 15.725 136.802 16.4213C136.611 16.9101 136.856 17.5276 136.575 17.9897C136.46 18.1786 136.276 18.3141 136.064 18.3671C135.41 18.53 134.745 17.8271 134.116 18.2236C133.666 18.5066 133.505 19.1705 132.995 19.3735C132.799 19.4516 132.581 19.4516 132.385 19.3735C131.875 19.1705 131.714 18.5066 131.264 18.2236C130.642 17.8321 129.959 18.5272 129.316 18.3671C129.103 18.3141 128.92 18.1786 128.805 17.9897C128.452 17.4109 128.907 16.56 128.332 16.0797C127.933 15.7462 127.273 15.7894 126.926 15.3805C126.78 15.2083 126.708 14.9836 126.726 14.7571C126.771 14.2237 127.322 13.8703 127.452 13.3676C127.639 12.649 126.781 12.2101 126.726 11.5461C126.708 11.3196 126.78 11.0949 126.926 10.9227C127.362 10.4088 128.306 10.5782 128.578 9.88185C128.769 9.39309 128.524 8.77551 128.805 8.31345C128.92 8.12455 129.103 7.98904 129.316 7.9361C129.843 7.80486 130.358 8.24267 130.884 8.20467C131.629 8.15072 131.753 7.18139 132.385 6.92967Z" fill="#2655FF"/>
<path d="M135.084 11.5458C135.277 11.4806 135.487 11.5846 135.552 11.7779C135.617 11.9712 135.514 12.1808 135.32 12.246C134.994 12.356 134.635 12.5854 134.269 12.8908C133.907 13.1934 133.557 13.5545 133.25 13.9056C132.943 14.256 132.682 14.5912 132.499 14.839C132.407 14.9627 132.335 15.0642 132.286 15.1343C132.261 15.1693 132.243 15.1967 132.23 15.2148C132.224 15.2239 132.219 15.2309 132.216 15.2353C132.215 15.2375 132.214 15.2389 132.213 15.2399C132.213 15.2404 132.212 15.2409 132.212 15.2411V15.2414C132.14 15.3498 132.016 15.4119 131.886 15.405C131.755 15.3982 131.639 15.3233 131.578 15.2079C131.327 14.7297 131.092 14.5217 130.951 14.4321C130.88 14.3869 130.828 14.3691 130.803 14.3622C130.791 14.3588 130.784 14.3579 130.784 14.3579C130.784 14.3579 130.786 14.3583 130.789 14.3585C130.791 14.3586 130.794 14.3587 130.796 14.3588H130.805L130.806 14.3585C130.602 14.3583 130.436 14.1933 130.436 13.9893C130.436 13.7853 130.602 13.6199 130.806 13.6199V13.9056C130.806 13.6295 130.806 13.6202 130.806 13.6199H130.812C130.814 13.6199 130.816 13.6201 130.819 13.6202C130.823 13.6203 130.829 13.6207 130.835 13.621C130.847 13.6218 130.861 13.623 130.877 13.6251C130.91 13.6292 130.95 13.6365 130.997 13.6493C131.092 13.6752 131.212 13.7227 131.347 13.8084C131.527 13.9224 131.725 14.0995 131.926 14.3712C132.117 14.115 132.382 13.7752 132.694 13.419C133.017 13.0505 133.394 12.6592 133.795 12.324C134.193 11.9916 134.634 11.6976 135.084 11.5458Z" fill="white"/>
<path d="M20.8667 11.8261C20.6685 12.6068 19.7322 13.1585 17.8594 14.2618C16.0491 15.3284 15.1439 15.8618 14.4144 15.6474C14.1128 15.5587 13.8381 15.3904 13.6165 15.1586C13.0804 14.5977 13.0804 13.5099 13.0804 11.3344C13.0804 9.15879 13.0804 8.071 13.6165 7.51017C13.8381 7.27831 14.1128 7.10998 14.4144 7.02136C15.1439 6.80699 16.0491 7.34029 17.8594 8.40689C19.7322 9.51022 20.6685 10.0619 20.8667 10.8426C20.9485 11.1649 20.9485 11.5039 20.8667 11.8261Z" fill="#3D3D3D"/>
<path d="M24.4146 24.8507C25.1369 24.8507 25.7223 25.4364 25.7223 26.1587C25.7223 26.881 25.1369 27.4664 24.4146 27.4665H8.71942C7.9971 27.4665 7.41142 26.881 7.41137 26.1587C7.41137 25.4364 7.99707 24.8507 8.71942 24.8507H24.4146ZM25.7957 0.000865876C28.0541 0.00866465 29.298 0.0717279 30.2771 0.570612C31.2615 1.0722 32.0618 1.8727 32.5633 2.8571C33.1334 3.97615 33.134 5.44085 33.134 8.37043L33.1331 15.3327C33.1253 17.591 33.0622 18.835 32.5633 19.8141C32.0618 20.7985 31.2615 21.5988 30.2771 22.1003C29.298 22.5992 28.0541 22.6623 25.7957 22.6701L24.7635 22.671H8.37018C5.62339 22.671 4.16422 22.6707 3.07044 22.2008L2.85657 22.1003C1.93378 21.6301 1.17217 20.8979 0.667346 19.9971L0.570368 19.8141C0.0714858 18.835 0.00842094 17.591 0.000621736 15.3327L-0.000244141 8.37043C-0.000244137 5.62364 1.58759e-05 4.16446 0.469927 3.07069L0.570368 2.8571C1.04056 1.9343 1.7728 1.17242 2.67358 0.667591L2.85657 0.570612C3.97564 0.000462956 5.44046 8.55469e-10 8.37018 0L25.7957 0.000865876ZM8.37018 2.6161C6.8622 2.6161 5.88822 2.61847 5.1471 2.67902C4.43678 2.73708 4.17303 2.83537 4.04369 2.90126C3.55171 3.15201 3.15148 3.55196 2.90073 4.04393C2.83484 4.17326 2.73655 4.43717 2.67849 5.14763C2.61795 5.88872 2.61557 6.86257 2.61557 8.37043V14.3005C2.61557 15.8085 2.61794 16.7825 2.67849 17.5236C2.73654 18.2339 2.83484 18.4977 2.90073 18.627C3.15148 19.119 3.55171 19.5189 4.04369 19.7697C4.17302 19.8356 4.43674 19.9339 5.1471 19.9919C5.88822 20.0525 6.8622 20.0551 8.37018 20.0551H24.7635C26.2715 20.0551 27.2455 20.0525 27.9866 19.9919C28.697 19.9339 28.9607 19.8356 29.09 19.7697C29.582 19.5189 29.9819 19.119 30.2327 18.627C30.2986 18.4977 30.3969 18.234 30.4549 17.5236C30.5155 16.7825 30.5181 15.8085 30.5181 14.3005V8.37043C30.5181 6.86255 30.5155 5.88872 30.4549 5.14763C30.3969 4.43715 30.2986 4.17326 30.2327 4.04393C29.9819 3.552 29.582 3.152 29.09 2.90126C28.9607 2.83537 28.697 2.73708 27.9866 2.67902C27.2455 2.61847 26.2715 2.6161 24.7635 2.6161H8.37018Z" fill="#E52E35"/>
<path d="M124.66 12.8402C124.66 13.1133 124.66 13.4059 124.64 13.562H116.994C117.033 15.22 118.008 16.761 119.978 16.761C121.734 16.761 122.417 15.6297 122.592 14.9664H124.543C124.016 16.8781 122.553 18.3215 119.939 18.3215C116.779 18.3215 115.024 16.0783 115.024 13.0353C115.024 9.91427 116.896 7.76855 119.939 7.76855C122.963 7.76855 124.66 9.75821 124.66 12.8402ZM116.994 12.06H122.67C122.67 10.4995 121.578 9.32907 119.881 9.32907C118.281 9.32907 117.111 10.4214 116.994 12.06Z" fill="#3D3D3D"/>
<path d="M111.088 18.0294H108.943L105.392 8.08105H107.441L110.054 16.0592H110.074L112.649 8.08105H114.638L111.088 18.0294Z" fill="#3D3D3D"/>
<path d="M104.322 6.30597H102.156V4.23828H104.322V6.30597ZM104.185 18.0293H102.273V8.08105H104.185V18.0293Z" fill="#3D3D3D"/>
<path d="M100.125 18.0282H98.2136V4.08105H100.125V18.0282Z" fill="#3D3D3D"/>
<path d="M96.26 18.0276H94.1338V15.9014H96.26V18.0276Z" fill="#3D3D3D"/>
<path d="M91.9956 18.0282H89.8499V4.08105H91.9956V18.0282Z" fill="#3D3D3D"/>
<path d="M82.1719 18.302C80.1822 18.302 78.9143 17.1512 78.9143 15.4541C78.9143 13.2304 80.5919 12.5671 83.0692 12.099C84.6297 11.8064 85.5855 11.6113 85.5855 10.636C85.5855 9.91427 85.1564 9.30956 83.6934 9.30956C81.9573 9.30956 81.4306 9.85575 81.3331 11.1822H79.3825C79.48 9.27055 80.7284 7.76855 83.7714 7.76855C85.8196 7.76855 87.4581 8.62684 87.4581 11.2017V15.7662C87.4581 16.4879 87.5557 16.8586 87.9263 16.8586C87.9848 16.8586 88.0433 16.8586 88.1604 16.8391V18.0094C87.8288 18.0875 87.4971 18.1265 87.185 18.1265C86.2292 18.1265 85.7221 17.7559 85.605 16.6245H85.566C84.9223 17.6583 83.7909 18.302 82.1719 18.302ZM82.601 16.761C84.3176 16.761 85.5855 15.8832 85.5855 14.1472V12.7232C85.2734 13.0158 84.4151 13.2304 83.4008 13.4449C81.6452 13.796 80.904 14.2837 80.904 15.3176C80.904 16.2539 81.4111 16.761 82.601 16.761Z" fill="#3D3D3D"/>
<path d="M77.0284 16.5662C77.36 16.5662 77.516 16.5467 77.8476 16.4882V18.0292C77.36 18.1267 77.0479 18.1462 76.6383 18.1462C74.9997 18.1462 74.0049 17.522 74.0049 15.2203V9.66092H72.5614V8.08089H74.0049V4.88184H75.9165V8.08089H77.8281V9.66092H75.9165V15.2788C75.9165 16.3321 76.2091 16.5662 77.0284 16.5662Z" fill="#3D3D3D"/>
<path d="M71.3537 6.30597H69.1885V4.23828H71.3537V6.30597ZM71.2171 18.0293H69.3055V8.08105H71.2171V18.0293Z" fill="#3D3D3D"/>
<path d="M65.259 9.25205V8.08166H67.1707V17.2497C67.1707 20.2537 65.3566 21.5996 62.5086 21.5996C59.6607 21.5996 58.2367 20.2342 58.0416 18.4396H60.0313C60.2264 19.3369 60.8896 20.0391 62.5086 20.0391C64.3227 20.0391 65.259 19.2394 65.259 17.3667V16.0208H65.22C64.6738 16.8206 63.757 17.5228 62.1575 17.5228C59.6802 17.5228 57.7686 15.8452 57.7686 12.6657C57.7686 9.46662 59.6802 7.78906 62.1575 7.78906C63.757 7.78906 64.6738 8.54981 65.22 9.25205H65.259ZM62.5086 15.9428C64.2252 15.9428 65.2395 14.8309 65.2395 12.6657C65.2395 10.481 64.2252 9.38859 62.5086 9.38859C60.636 9.38859 59.7582 10.7931 59.7582 12.6657C59.7582 14.5383 60.636 15.9428 62.5086 15.9428Z" fill="#3D3D3D"/>
<path d="M56.2287 6.30597H54.0635V4.23828H56.2287V6.30597ZM56.0921 18.0293H54.1805V8.08105H56.0921V18.0293Z" fill="#3D3D3D"/>
<path d="M46.3338 18.0282H40.989V4.08105H46.2948C50.157 4.08105 52.4978 6.57788 52.4978 11.0644C52.4978 15.5509 50.1961 18.0282 46.3338 18.0282ZM43.1347 16.1751H46.1972C49.4353 16.1751 50.2741 13.7563 50.2741 11.0644C50.2741 8.37248 49.4353 5.93417 46.1972 5.93417H43.1347V16.1751Z" fill="#3D3D3D"/>
</svg>
